<svg width="22" height="19" viewBox="0 0 22 19" fill="none" xmlns="http://www.w3.org/2000/svg">
<path fill-rule="evenodd" clip-rule="evenodd" d="M0.192139 9.625C0.192139 9.26986 0.331991 8.92927 0.580929 8.67815C0.829867 8.42703 1.1675 8.28595 1.51955 8.28595H16.899L11.199 2.53878C10.9498 2.28734 10.8098 1.94632 10.8098 1.59074C10.8098 1.23515 10.9498 0.894129 11.199 0.642693C11.4483 0.391256 11.7864 0.25 12.1389 0.25C12.4913 0.25 12.8294 0.391256 13.0787 0.642693L21.0431 8.67695C21.1667 8.80134 21.2648 8.9491 21.3317 9.11178C21.3987 9.27447 21.4331 9.44887 21.4331 9.625C21.4331 9.80113 21.3987 9.97553 21.3317 10.1382C21.2648 10.3009 21.1667 10.4487 21.0431 10.573L13.0787 18.6073C12.8294 18.8587 12.4913 19 12.1389 19C11.7864 19 11.4483 18.8587 11.199 18.6073C10.9498 18.3559 10.8098 18.0148 10.8098 17.6593C10.8098 17.3037 10.9498 16.9627 11.199 16.7112L16.899 10.964H1.51955C1.1675 10.964 0.829867 10.823 0.580929 10.5718C0.331991 10.3207 0.192139 9.98013 0.192139 9.625Z" fill="white"/>
</svg>
