<svg width="22" height="19" viewBox="0 0 22 19" fill="none" xmlns="http://www.w3.org/2000/svg">
<path fill-rule="evenodd" clip-rule="evenodd" d="M21.9353 9.375C21.9353 9.73014 21.7955 10.0707 21.5465 10.3218C21.2976 10.573 20.9599 10.714 20.6079 10.714L5.22848 10.714L10.9284 16.4612C11.1776 16.7127 11.3177 17.0537 11.3177 17.4093C11.3177 17.7648 11.1776 18.1059 10.9284 18.3573C10.6791 18.6087 10.3411 18.75 9.98859 18.75C9.63609 18.75 9.29803 18.6087 9.04878 18.3573L1.0843 10.323C0.960684 10.1987 0.862608 10.0509 0.795689 9.88821C0.728771 9.72553 0.694325 9.55113 0.694325 9.375C0.694325 9.19887 0.728771 9.02447 0.795689 8.86179C0.862608 8.69911 0.960684 8.55134 1.0843 8.42696L9.04878 0.392694C9.29803 0.141255 9.63609 9.23875e-07 9.98859 9.23875e-07C10.3411 9.23875e-07 10.6791 0.141255 10.9284 0.392694C11.1776 0.64413 11.3177 0.985151 11.3177 1.34074C11.3177 1.69632 11.1776 2.03734 10.9284 2.28878L5.22848 8.03596L20.6079 8.03596C20.9599 8.03596 21.2976 8.17703 21.5465 8.42815C21.7955 8.67927 21.9353 9.01986 21.9353 9.375Z" fill="#2DA791"/>
</svg>
