<svg width="64" height="64" viewBox="0 0 64 64" fill="none" xmlns="http://www.w3.org/2000/svg">
<g opacity="0.06">
<rect width="64" height="64" rx="16" fill="#DB5AEE"/>
</g>
<path fill-rule="evenodd" clip-rule="evenodd" d="M32 13C20.95 13 12 21.95 12 33C12 41.85 17.725 49.325 25.675 51.975C26.675 52.15 27.05 51.55 27.05 51.025C27.05 50.55 27.025 48.975 27.025 47.3C22 48.225 20.7 46.075 20.3 44.95C20.075 44.375 19.1 42.6 18.25 42.125C17.55 41.75 16.55 40.825 18.225 40.8C19.8 40.775 20.925 42.25 21.3 42.85C23.1 45.875 25.975 45.025 27.125 44.5C27.3 43.2 27.825 42.325 28.4 41.825C23.95 41.325 19.3 39.6 19.3 31.95C19.3 29.775 20.075 27.975 21.35 26.575C21.15 26.075 20.45 24.025 21.55 21.275C21.55 21.275 23.225 20.75 27.05 23.325C28.65 22.875 30.35 22.65 32.05 22.65C33.75 22.65 35.45 22.875 37.05 23.325C40.875 20.725 42.55 21.275 42.55 21.275C43.65 24.025 42.95 26.075 42.75 26.575C44.025 27.975 44.8 29.75 44.8 31.95C44.8 39.625 40.125 41.325 35.675 41.825C36.4 42.45 37.025 43.65 37.025 45.525C37.025 48.2 37 50.35 37 51.025C37 51.55 37.375 52.175 38.375 51.975C42.3453 50.6345 45.7953 48.0828 48.2394 44.6789C50.6836 41.2751 51.9988 37.1905 52 33C52 21.95 43.05 13 32 13Z" fill="#171516"/>
</svg>
