<svg width="64" height="64" viewBox="0 0 64 64" fill="none" xmlns="http://www.w3.org/2000/svg">
<g opacity="0.06">
<rect width="64" height="64" rx="16" fill="#2DA791"/>
</g>
<path d="M20.6689 42.3411H35.8394V38.0067H20.6689V42.3411ZM20.6689 33.6722H42.3411V29.3378H20.6689V33.6722ZM20.6689 25.0033H42.3411V20.6689H20.6689V25.0033ZM16.3344 51.01C15.1425 51.01 14.1217 50.5859 13.2722 49.7378C12.4241 48.8883 12 47.8675 12 46.6756V16.3344C12 15.1425 12.4241 14.1217 13.2722 13.2722C14.1217 12.4241 15.1425 12 16.3344 12H46.6756C47.8675 12 48.8883 12.4241 49.7378 13.2722C50.5859 14.1217 51.01 15.1425 51.01 16.3344V46.6756C51.01 47.8675 50.5859 48.8883 49.7378 49.7378C48.8883 50.5859 47.8675 51.01 46.6756 51.01H16.3344ZM16.3344 46.6756H46.6756V16.3344H16.3344V46.6756Z" fill="#2DA791"/>
</svg>
