<svg width="234" height="207" viewBox="0 0 234 207" fill="none" xmlns="http://www.w3.org/2000/svg">
<g filter="url(#filter0_b_119_4733)">
<rect x="1" y="1" width="232" height="205" rx="8" fill="white"/>
<path d="M23.76 38.24C22.8267 38.24 21.96 38.0667 21.16 37.72C20.36 37.36 19.68 36.8733 19.12 36.26C18.56 35.6467 18.1467 34.94 17.88 34.14L19.88 33.3C20.24 34.22 20.7667 34.9267 21.46 35.42C22.1533 35.9133 22.9533 36.16 23.86 36.16C24.3933 36.16 24.86 36.08 25.26 35.92C25.66 35.7467 25.9667 35.5067 26.18 35.2C26.4067 34.8933 26.52 34.54 26.52 34.14C26.52 33.5933 26.3667 33.16 26.06 32.84C25.7533 32.52 25.3 32.2667 24.7 32.08L21.9 31.2C20.78 30.8533 19.9267 30.3267 19.34 29.62C18.7533 28.9 18.46 28.06 18.46 27.1C18.46 26.26 18.6667 25.5267 19.08 24.9C19.4933 24.26 20.06 23.76 20.78 23.4C21.5133 23.04 22.3467 22.86 23.28 22.86C24.1733 22.86 24.9867 23.02 25.72 23.34C26.4533 23.6467 27.08 24.0733 27.6 24.62C28.1333 25.1667 28.52 25.8 28.76 26.52L26.8 27.38C26.5067 26.5933 26.0467 25.9867 25.42 25.56C24.8067 25.1333 24.0933 24.92 23.28 24.92C22.7867 24.92 22.3533 25.0067 21.98 25.18C21.6067 25.34 21.3133 25.58 21.1 25.9C20.9 26.2067 20.8 26.5667 20.8 26.98C20.8 27.46 20.9533 27.8867 21.26 28.26C21.5667 28.6333 22.0333 28.9133 22.66 29.1L25.26 29.92C26.4467 30.28 27.34 30.8 27.94 31.48C28.54 32.1467 28.84 32.98 28.84 33.98C28.84 34.8067 28.62 35.54 28.18 36.18C27.7533 36.82 27.16 37.3267 26.4 37.7C25.64 38.06 24.76 38.24 23.76 38.24ZM36.3492 38.24C35.2692 38.24 34.3092 37.9933 33.4692 37.5C32.6426 36.9933 31.9959 36.3133 31.5292 35.46C31.0626 34.5933 30.8292 33.6267 30.8292 32.56C30.8292 31.4667 31.0626 30.5 31.5292 29.66C32.0092 28.82 32.6492 28.16 33.4492 27.68C34.2492 27.1867 35.1559 26.94 36.1692 26.94C36.9826 26.94 37.7092 27.08 38.3492 27.36C38.9892 27.64 39.5292 28.0267 39.9692 28.52C40.4092 29 40.7426 29.5533 40.9692 30.18C41.2092 30.8067 41.3292 31.4733 41.3292 32.18C41.3292 32.3533 41.3226 32.5333 41.3092 32.72C41.2959 32.9067 41.2692 33.08 41.2292 33.24H32.6092V31.44H39.9492L38.8692 32.26C39.0026 31.6067 38.9559 31.0267 38.7292 30.52C38.5159 30 38.1826 29.5933 37.7292 29.3C37.2892 28.9933 36.7692 28.84 36.1692 28.84C35.5692 28.84 35.0359 28.9933 34.5692 29.3C34.1026 29.5933 33.7426 30.02 33.4892 30.58C33.2359 31.1267 33.1359 31.7933 33.1892 32.58C33.1226 33.3133 33.2226 33.9533 33.4892 34.5C33.7692 35.0467 34.1559 35.4733 34.6492 35.78C35.1559 36.0867 35.7292 36.24 36.3692 36.24C37.0226 36.24 37.5759 36.0933 38.0292 35.8C38.4959 35.5067 38.8626 35.1267 39.1292 34.66L40.9692 35.56C40.7559 36.0667 40.4226 36.5267 39.9692 36.94C39.5292 37.34 38.9959 37.66 38.3692 37.9C37.7559 38.1267 37.0826 38.24 36.3492 38.24ZM47.5348 38.24C46.4282 38.24 45.4548 37.9667 44.6148 37.42C43.7882 36.8733 43.2082 36.14 42.8748 35.22L44.6148 34.4C44.9082 35.0133 45.3082 35.5 45.8148 35.86C46.3348 36.22 46.9082 36.4 47.5348 36.4C48.0682 36.4 48.5015 36.28 48.8348 36.04C49.1682 35.8 49.3348 35.4733 49.3348 35.06C49.3348 34.7933 49.2615 34.58 49.1148 34.42C48.9682 34.2467 48.7815 34.1067 48.5548 34C48.3415 33.8933 48.1215 33.8133 47.8948 33.76L46.1948 33.28C45.2615 33.0133 44.5615 32.6133 44.0948 32.08C43.6415 31.5333 43.4148 30.9 43.4148 30.18C43.4148 29.5267 43.5815 28.96 43.9148 28.48C44.2482 27.9867 44.7082 27.6067 45.2948 27.34C45.8815 27.0733 46.5415 26.94 47.2748 26.94C48.2615 26.94 49.1415 27.1867 49.9148 27.68C50.6882 28.16 51.2348 28.8333 51.5548 29.7L49.8148 30.52C49.6015 30 49.2615 29.5867 48.7948 29.28C48.3415 28.9733 47.8282 28.82 47.2548 28.82C46.7615 28.82 46.3682 28.94 46.0748 29.18C45.7815 29.4067 45.6348 29.7067 45.6348 30.08C45.6348 30.3333 45.7015 30.5467 45.8348 30.72C45.9682 30.88 46.1415 31.0133 46.3548 31.12C46.5682 31.2133 46.7882 31.2933 47.0148 31.36L48.7748 31.88C49.6682 32.1333 50.3548 32.5333 50.8348 33.08C51.3148 33.6133 51.5548 34.2533 51.5548 35C51.5548 35.64 51.3815 36.2067 51.0348 36.7C50.7015 37.18 50.2348 37.56 49.6348 37.84C49.0348 38.1067 48.3348 38.24 47.5348 38.24ZM57.7692 38.24C56.6626 38.24 55.6892 37.9667 54.8492 37.42C54.0226 36.8733 53.4426 36.14 53.1092 35.22L54.8492 34.4C55.1426 35.0133 55.5426 35.5 56.0492 35.86C56.5692 36.22 57.1426 36.4 57.7692 36.4C58.3026 36.4 58.7359 36.28 59.0692 36.04C59.4026 35.8 59.5692 35.4733 59.5692 35.06C59.5692 34.7933 59.4959 34.58 59.3492 34.42C59.2026 34.2467 59.0159 34.1067 58.7892 34C58.5759 33.8933 58.3559 33.8133 58.1292 33.76L56.4292 33.28C55.4959 33.0133 54.7959 32.6133 54.3292 32.08C53.8759 31.5333 53.6492 30.9 53.6492 30.18C53.6492 29.5267 53.8159 28.96 54.1492 28.48C54.4826 27.9867 54.9426 27.6067 55.5292 27.34C56.1159 27.0733 56.7759 26.94 57.5092 26.94C58.4959 26.94 59.3759 27.1867 60.1492 27.68C60.9226 28.16 61.4692 28.8333 61.7892 29.7L60.0492 30.52C59.8359 30 59.4959 29.5867 59.0292 29.28C58.5759 28.9733 58.0626 28.82 57.4892 28.82C56.9959 28.82 56.6026 28.94 56.3092 29.18C56.0159 29.4067 55.8692 29.7067 55.8692 30.08C55.8692 30.3333 55.9359 30.5467 56.0692 30.72C56.2026 30.88 56.3759 31.0133 56.5892 31.12C56.8026 31.2133 57.0226 31.2933 57.2492 31.36L59.0092 31.88C59.9026 32.1333 60.5892 32.5333 61.0692 33.08C61.5492 33.6133 61.7892 34.2533 61.7892 35C61.7892 35.64 61.6159 36.2067 61.2692 36.7C60.9359 37.18 60.4692 37.56 59.8692 37.84C59.2692 38.1067 58.5692 38.24 57.7692 38.24ZM64.0036 38V27.18H66.2636V38H64.0036ZM64.0036 25.7V23.1H66.2636V25.7H64.0036ZM74.1259 38.24C73.0859 38.24 72.1326 37.9933 71.2659 37.5C70.4126 37.0067 69.7326 36.3333 69.2259 35.48C68.7193 34.6267 68.4659 33.66 68.4659 32.58C68.4659 31.4867 68.7193 30.52 69.2259 29.68C69.7326 28.8267 70.4126 28.16 71.2659 27.68C72.1193 27.1867 73.0726 26.94 74.1259 26.94C75.1926 26.94 76.1459 27.1867 76.9859 27.68C77.8393 28.16 78.5126 28.8267 79.0059 29.68C79.5126 30.52 79.7659 31.4867 79.7659 32.58C79.7659 33.6733 79.5126 34.6467 79.0059 35.5C78.4993 36.3533 77.8193 37.0267 76.9659 37.52C76.1126 38 75.1659 38.24 74.1259 38.24ZM74.1259 36.14C74.7659 36.14 75.3326 35.9867 75.8259 35.68C76.3193 35.3733 76.7059 34.9533 76.9859 34.42C77.2793 33.8733 77.4259 33.26 77.4259 32.58C77.4259 31.9 77.2793 31.2933 76.9859 30.76C76.7059 30.2267 76.3193 29.8067 75.8259 29.5C75.3326 29.1933 74.7659 29.04 74.1259 29.04C73.4993 29.04 72.9326 29.1933 72.4259 29.5C71.9326 29.8067 71.5393 30.2267 71.2459 30.76C70.9659 31.2933 70.8259 31.9 70.8259 32.58C70.8259 33.26 70.9659 33.8733 71.2459 34.42C71.5393 34.9533 71.9326 35.3733 72.4259 35.68C72.9326 35.9867 73.4993 36.14 74.1259 36.14ZM81.9723 38V27.18H84.1323V29.3L83.8723 29.02C84.139 28.34 84.5657 27.8267 85.1523 27.48C85.739 27.12 86.419 26.94 87.1923 26.94C87.9923 26.94 88.699 27.1133 89.3123 27.46C89.9257 27.8067 90.4057 28.2867 90.7523 28.9C91.099 29.5133 91.2723 30.22 91.2723 31.02V38H89.0323V31.62C89.0323 31.0733 88.9323 30.6133 88.7323 30.24C88.5323 29.8533 88.2457 29.56 87.8723 29.36C87.5123 29.1467 87.099 29.04 86.6323 29.04C86.1657 29.04 85.7457 29.1467 85.3723 29.36C85.0123 29.56 84.7323 29.8533 84.5323 30.24C84.3323 30.6267 84.2323 31.0867 84.2323 31.62V38H81.9723ZM97.6911 38.24C96.5844 38.24 95.6111 37.9667 94.7711 37.42C93.9444 36.8733 93.3644 36.14 93.0311 35.22L94.7711 34.4C95.0644 35.0133 95.4644 35.5 95.9711 35.86C96.4911 36.22 97.0644 36.4 97.6911 36.4C98.2244 36.4 98.6578 36.28 98.9911 36.04C99.3244 35.8 99.4911 35.4733 99.4911 35.06C99.4911 34.7933 99.4178 34.58 99.2711 34.42C99.1244 34.2467 98.9378 34.1067 98.7111 34C98.4978 33.8933 98.2778 33.8133 98.0511 33.76L96.3511 33.28C95.4178 33.0133 94.7178 32.6133 94.2511 32.08C93.7978 31.5333 93.5711 30.9 93.5711 30.18C93.5711 29.5267 93.7378 28.96 94.0711 28.48C94.4044 27.9867 94.8644 27.6067 95.4511 27.34C96.0378 27.0733 96.6978 26.94 97.4311 26.94C98.4178 26.94 99.2978 27.1867 100.071 27.68C100.844 28.16 101.391 28.8333 101.711 29.7L99.9711 30.52C99.7578 30 99.4178 29.5867 98.9511 29.28C98.4978 28.9733 97.9844 28.82 97.4111 28.82C96.9178 28.82 96.5244 28.94 96.2311 29.18C95.9378 29.4067 95.7911 29.7067 95.7911 30.08C95.7911 30.3333 95.8578 30.5467 95.9911 30.72C96.1244 30.88 96.2978 31.0133 96.5111 31.12C96.7244 31.2133 96.9444 31.2933 97.1711 31.36L98.9311 31.88C99.8244 32.1333 100.511 32.5333 100.991 33.08C101.471 33.6133 101.711 34.2533 101.711 35C101.711 35.64 101.538 36.2067 101.191 36.7C100.858 37.18 100.391 37.56 99.7911 37.84C99.1911 38.1067 98.4911 38.24 97.6911 38.24Z" fill="#0F2D44"/>
<path d="M34.228 112.5V89.856H29.044V85.68H39.124V112.5H34.228ZM46.2275 118.116V115.776C47.0195 115.584 47.6555 115.212 48.1355 114.66C48.6395 114.132 48.9515 113.412 49.0715 112.5H46.9475V107.46H51.6995V110.556C51.6995 112.668 51.2315 114.36 50.2955 115.632C49.3835 116.904 48.0275 117.732 46.2275 118.116ZM68.1307 112.932C65.9947 112.932 64.1227 112.356 62.5147 111.204C60.9067 110.052 59.6467 108.432 58.7347 106.344C57.8467 104.256 57.4027 101.832 57.4027 99.072C57.4027 96.288 57.8467 93.864 58.7347 91.8C59.6227 89.736 60.8707 88.128 62.4787 86.976C64.0867 85.824 65.9587 85.248 68.0947 85.248C70.2787 85.248 72.1627 85.824 73.7467 86.976C75.3547 88.128 76.6147 89.748 77.5267 91.836C78.4387 93.9 78.8947 96.312 78.8947 99.072C78.8947 101.832 78.4387 104.256 77.5267 106.344C76.6387 108.408 75.3907 110.028 73.7827 111.204C72.1747 112.356 70.2907 112.932 68.1307 112.932ZM68.1667 108.468C69.3907 108.468 70.4347 108.096 71.2987 107.352C72.1627 106.584 72.8227 105.504 73.2787 104.112C73.7587 102.696 73.9987 101.016 73.9987 99.072C73.9987 97.128 73.7587 95.46 73.2787 94.068C72.8227 92.652 72.1507 91.572 71.2627 90.828C70.3987 90.084 69.3427 89.712 68.0947 89.712C66.8947 89.712 65.8627 90.084 64.9987 90.828C64.1347 91.572 63.4627 92.652 62.9827 94.068C62.5267 95.46 62.2987 97.128 62.2987 99.072C62.2987 100.992 62.5267 102.66 62.9827 104.076C63.4627 105.468 64.1347 106.548 64.9987 107.316C65.8867 108.084 66.9427 108.468 68.1667 108.468ZM91.423 112.932C89.959 112.932 88.567 112.668 87.247 112.14C85.951 111.588 84.835 110.82 83.899 109.836C82.987 108.828 82.363 107.64 82.027 106.272L86.311 104.76C86.743 105.984 87.403 106.92 88.291 107.568C89.179 108.192 90.223 108.504 91.423 108.504C92.383 108.504 93.211 108.324 93.907 107.964C94.627 107.604 95.191 107.088 95.599 106.416C96.007 105.72 96.211 104.904 96.211 103.968C96.211 103.032 96.007 102.24 95.599 101.592C95.215 100.92 94.663 100.404 93.943 100.044C93.223 99.684 92.371 99.504 91.387 99.504C90.931 99.504 90.451 99.552 89.947 99.648C89.467 99.744 89.035 99.888 88.651 100.08L87.535 97.74L94.483 89.82H83.539V85.68H99.991V89.532L93.007 97.704L93.079 95.868C94.687 95.892 96.091 96.24 97.291 96.912C98.491 97.584 99.427 98.508 100.099 99.684C100.771 100.86 101.107 102.24 101.107 103.824C101.107 105.552 100.687 107.112 99.847 108.504C99.007 109.872 97.855 110.952 96.391 111.744C94.927 112.536 93.271 112.932 91.423 112.932ZM114.259 112.932C112.315 112.932 110.623 112.572 109.183 111.852C107.767 111.108 106.663 110.112 105.871 108.864C105.103 107.616 104.719 106.248 104.719 104.76C104.719 103.008 105.187 101.532 106.123 100.332C107.059 99.108 108.415 98.208 110.191 97.632L109.903 98.82C108.631 98.412 107.623 97.62 106.879 96.444C106.159 95.268 105.799 93.972 105.799 92.556C105.799 91.14 106.159 89.88 106.879 88.776C107.599 87.672 108.595 86.808 109.867 86.184C111.139 85.56 112.603 85.248 114.259 85.248C115.891 85.248 117.331 85.56 118.579 86.184C119.851 86.808 120.847 87.672 121.567 88.776C122.311 89.88 122.683 91.14 122.683 92.556C122.683 93.996 122.311 95.304 121.567 96.48C120.847 97.632 119.851 98.424 118.579 98.856L118.327 97.596C120.103 98.22 121.459 99.144 122.395 100.368C123.331 101.568 123.799 103.044 123.799 104.796C123.799 106.284 123.403 107.652 122.611 108.9C121.843 110.124 120.739 111.108 119.299 111.852C117.883 112.572 116.203 112.932 114.259 112.932ZM114.259 108.792C115.195 108.792 116.011 108.624 116.707 108.288C117.403 107.928 117.943 107.436 118.327 106.812C118.711 106.164 118.903 105.432 118.903 104.616C118.903 103.776 118.711 103.056 118.327 102.456C117.943 101.832 117.403 101.352 116.707 101.016C116.011 100.656 115.195 100.476 114.259 100.476C113.323 100.476 112.507 100.656 111.811 101.016C111.139 101.352 110.611 101.832 110.227 102.456C109.843 103.056 109.651 103.776 109.651 104.616C109.651 105.432 109.843 106.164 110.227 106.812C110.611 107.436 111.139 107.928 111.811 108.288C112.507 108.624 113.323 108.792 114.259 108.792ZM114.259 96.336C114.955 96.336 115.567 96.18 116.095 95.868C116.623 95.556 117.031 95.148 117.319 94.644C117.631 94.116 117.787 93.516 117.787 92.844C117.787 92.172 117.631 91.584 117.319 91.08C117.031 90.552 116.623 90.144 116.095 89.856C115.567 89.544 114.955 89.388 114.259 89.388C113.563 89.388 112.939 89.544 112.387 89.856C111.859 90.144 111.439 90.552 111.127 91.08C110.839 91.584 110.695 92.172 110.695 92.844C110.695 93.516 110.839 94.116 111.127 94.644C111.439 95.148 111.859 95.556 112.387 95.868C112.939 96.18 113.563 96.336 114.259 96.336ZM129.337 118.116V115.776C130.129 115.584 130.765 115.212 131.245 114.66C131.749 114.132 132.061 113.412 132.181 112.5H130.057V107.46H134.809V110.556C134.809 112.668 134.341 114.36 133.405 115.632C132.493 116.904 131.137 117.732 129.337 118.116ZM152.104 112.5V106.596H139.792V102.492L151.816 85.68H156.928V102.492H160.852V106.596H156.928V112.5H152.104ZM143.392 104.256L142.528 102.492H152.104V89.532L153.364 89.928L143.392 104.256ZM172.923 112.932C171.099 112.932 169.479 112.548 168.063 111.78C166.671 110.988 165.579 109.932 164.787 108.612C163.995 107.268 163.599 105.744 163.599 104.04C163.599 103.176 163.683 102.312 163.851 101.448C164.043 100.584 164.379 99.66 164.859 98.676C165.363 97.692 166.083 96.6 167.019 95.4L174.507 85.68H180.339L171.231 97.38L170.439 96.516C170.775 96.252 171.123 96.048 171.483 95.904C171.843 95.736 172.203 95.616 172.563 95.544C172.947 95.472 173.343 95.436 173.751 95.436C175.383 95.436 176.835 95.808 178.107 96.552C179.379 97.296 180.375 98.316 181.095 99.612C181.839 100.884 182.211 102.324 182.211 103.932C182.211 105.66 181.815 107.208 181.023 108.576C180.231 109.92 179.127 110.988 177.711 111.78C176.319 112.548 174.723 112.932 172.923 112.932ZM172.923 108.504C173.739 108.504 174.471 108.324 175.119 107.964C175.791 107.58 176.319 107.04 176.703 106.344C177.111 105.648 177.315 104.868 177.315 104.004C177.315 103.092 177.111 102.312 176.703 101.664C176.319 100.992 175.803 100.464 175.155 100.08C174.507 99.696 173.763 99.504 172.923 99.504C172.107 99.504 171.363 99.696 170.691 100.08C170.019 100.464 169.479 100.992 169.071 101.664C168.687 102.312 168.495 103.092 168.495 104.004C168.495 104.868 168.687 105.648 169.071 106.344C169.479 107.04 170.019 107.58 170.691 107.964C171.363 108.324 172.107 108.504 172.923 108.504ZM194.399 112.932C192.983 112.932 191.627 112.668 190.331 112.14C189.059 111.612 187.955 110.868 187.019 109.908C186.107 108.924 185.483 107.76 185.147 106.416L189.395 104.904C189.803 106.128 190.463 107.04 191.375 107.64C192.287 108.216 193.295 108.504 194.399 108.504C195.311 108.504 196.115 108.312 196.811 107.928C197.531 107.52 198.083 106.968 198.467 106.272C198.851 105.552 199.043 104.724 199.043 103.788C199.043 102.852 198.839 102.036 198.431 101.34C198.047 100.644 197.507 100.104 196.811 99.72C196.115 99.312 195.311 99.108 194.399 99.108C193.463 99.108 192.611 99.312 191.843 99.72C191.099 100.128 190.559 100.716 190.223 101.484L186.227 100.584L188.351 85.68H202.967V89.82H190.295L192.131 87.696L190.619 98.928L189.215 97.776C189.887 96.792 190.703 96.072 191.663 95.616C192.647 95.16 193.835 94.932 195.227 94.932C197.003 94.932 198.539 95.316 199.835 96.084C201.155 96.852 202.175 97.896 202.895 99.216C203.615 100.536 203.975 102.06 203.975 103.788C203.975 105.516 203.555 107.076 202.715 108.468C201.875 109.86 200.735 110.952 199.295 111.744C197.855 112.536 196.223 112.932 194.399 112.932Z" fill="#183B56"/>
<path d="M87.924 153.692C87.1667 153.692 86.4733 153.553 85.844 153.276C85.2147 152.988 84.6813 152.599 84.244 152.108C83.8067 151.617 83.492 151.068 83.3 150.46L84.66 149.9C84.948 150.668 85.3747 151.26 85.94 151.676C86.516 152.081 87.188 152.284 87.956 152.284C88.4253 152.284 88.836 152.209 89.188 152.06C89.54 151.911 89.812 151.703 90.004 151.436C90.2067 151.159 90.308 150.839 90.308 150.476C90.308 149.975 90.164 149.58 89.876 149.292C89.5987 148.993 89.188 148.769 88.644 148.62L86.452 147.948C85.588 147.681 84.9267 147.26 84.468 146.684C84.0093 146.108 83.78 145.447 83.78 144.7C83.78 144.049 83.9347 143.479 84.244 142.988C84.564 142.487 85.0013 142.097 85.556 141.82C86.1213 141.532 86.7613 141.388 87.476 141.388C88.1907 141.388 88.836 141.516 89.412 141.772C89.9987 142.028 90.4947 142.375 90.9 142.812C91.3053 143.239 91.604 143.729 91.796 144.284L90.452 144.844C90.196 144.172 89.812 143.665 89.3 143.324C88.788 142.972 88.1853 142.796 87.492 142.796C87.0653 142.796 86.6867 142.871 86.356 143.02C86.036 143.159 85.7853 143.367 85.604 143.644C85.4333 143.911 85.348 144.231 85.348 144.604C85.348 145.041 85.4867 145.431 85.764 145.772C86.0413 146.113 86.4627 146.375 87.028 146.556L89.028 147.148C89.9667 147.436 90.676 147.847 91.156 148.38C91.636 148.913 91.876 149.575 91.876 150.364C91.876 151.015 91.7053 151.591 91.364 152.092C91.0333 152.593 90.5693 152.988 89.972 153.276C89.3853 153.553 88.7027 153.692 87.924 153.692ZM97.9638 153.692C97.1318 153.692 96.3904 153.495 95.7398 153.1C95.0891 152.705 94.5771 152.167 94.2038 151.484C93.8304 150.791 93.6438 150.017 93.6438 149.164C93.6438 148.3 93.8251 147.532 94.1878 146.86C94.5611 146.188 95.0624 145.66 95.6918 145.276C96.3318 144.881 97.0464 144.684 97.8358 144.684C98.4758 144.684 99.0411 144.801 99.5318 145.036C100.033 145.26 100.454 145.569 100.796 145.964C101.148 146.348 101.414 146.791 101.596 147.292C101.788 147.783 101.884 148.295 101.884 148.828C101.884 148.945 101.873 149.079 101.852 149.228C101.841 149.367 101.825 149.5 101.804 149.628H94.7318V148.348H100.94L100.236 148.924C100.332 148.369 100.278 147.873 100.076 147.436C99.8731 146.999 99.5744 146.652 99.1798 146.396C98.7851 146.14 98.3371 146.012 97.8358 146.012C97.3344 146.012 96.8758 146.14 96.4598 146.396C96.0438 146.652 95.7184 147.02 95.4838 147.5C95.2598 147.969 95.1691 148.529 95.2118 149.18C95.1691 149.809 95.2651 150.364 95.4998 150.844C95.7451 151.313 96.0864 151.681 96.5238 151.948C96.9718 152.204 97.4571 152.332 97.9798 152.332C98.5558 152.332 99.0411 152.199 99.4358 151.932C99.8304 151.665 100.15 151.324 100.396 150.908L101.644 151.548C101.473 151.943 101.206 152.305 100.844 152.636C100.492 152.956 100.07 153.212 99.5798 153.404C99.0998 153.596 98.5611 153.692 97.9638 153.692ZM106.912 153.692C106.048 153.692 105.296 153.479 104.656 153.052C104.016 152.625 103.563 152.049 103.296 151.324L104.48 150.748C104.725 151.26 105.061 151.665 105.488 151.964C105.915 152.263 106.389 152.412 106.912 152.412C107.381 152.412 107.771 152.3 108.08 152.076C108.389 151.852 108.544 151.559 108.544 151.196C108.544 150.94 108.469 150.737 108.32 150.588C108.181 150.428 108.011 150.305 107.808 150.22C107.605 150.124 107.419 150.055 107.248 150.012L105.952 149.644C105.173 149.42 104.603 149.1 104.24 148.684C103.888 148.268 103.712 147.783 103.712 147.228C103.712 146.716 103.84 146.273 104.096 145.9C104.363 145.516 104.72 145.217 105.168 145.004C105.627 144.791 106.139 144.684 106.704 144.684C107.461 144.684 108.139 144.876 108.736 145.26C109.344 145.644 109.776 146.183 110.032 146.876L108.816 147.436C108.624 146.988 108.336 146.636 107.952 146.38C107.568 146.113 107.136 145.98 106.656 145.98C106.219 145.98 105.872 146.092 105.616 146.316C105.36 146.529 105.232 146.801 105.232 147.132C105.232 147.377 105.296 147.58 105.424 147.74C105.552 147.889 105.707 148.007 105.888 148.092C106.069 148.167 106.245 148.231 106.416 148.284L107.824 148.7C108.528 148.903 109.072 149.217 109.456 149.644C109.851 150.071 110.048 150.583 110.048 151.18C110.048 151.66 109.915 152.092 109.648 152.476C109.381 152.86 109.013 153.159 108.544 153.372C108.075 153.585 107.531 153.692 106.912 153.692ZM115.084 153.692C114.22 153.692 113.468 153.479 112.828 153.052C112.188 152.625 111.734 152.049 111.468 151.324L112.652 150.748C112.897 151.26 113.233 151.665 113.66 151.964C114.086 152.263 114.561 152.412 115.084 152.412C115.553 152.412 115.942 152.3 116.252 152.076C116.561 151.852 116.716 151.559 116.716 151.196C116.716 150.94 116.641 150.737 116.492 150.588C116.353 150.428 116.182 150.305 115.98 150.22C115.777 150.124 115.59 150.055 115.42 150.012L114.124 149.644C113.345 149.42 112.774 149.1 112.412 148.684C112.06 148.268 111.884 147.783 111.884 147.228C111.884 146.716 112.012 146.273 112.268 145.9C112.534 145.516 112.892 145.217 113.34 145.004C113.798 144.791 114.31 144.684 114.876 144.684C115.633 144.684 116.31 144.876 116.908 145.26C117.516 145.644 117.948 146.183 118.204 146.876L116.988 147.436C116.796 146.988 116.508 146.636 116.124 146.38C115.74 146.113 115.308 145.98 114.828 145.98C114.39 145.98 114.044 146.092 113.788 146.316C113.532 146.529 113.404 146.801 113.404 147.132C113.404 147.377 113.468 147.58 113.596 147.74C113.724 147.889 113.878 148.007 114.06 148.092C114.241 148.167 114.417 148.231 114.588 148.284L115.996 148.7C116.7 148.903 117.244 149.217 117.628 149.644C118.022 150.071 118.22 150.583 118.22 151.18C118.22 151.66 118.086 152.092 117.82 152.476C117.553 152.86 117.185 153.159 116.716 153.372C116.246 153.585 115.702 153.692 115.084 153.692ZM120.168 153.5V144.876H121.656V153.5H120.168ZM120.168 143.5V141.58H121.656V143.5H120.168ZM128.061 153.692C127.229 153.692 126.477 153.5 125.805 153.116C125.133 152.721 124.599 152.183 124.205 151.5C123.81 150.817 123.613 150.044 123.613 149.18C123.613 148.316 123.805 147.548 124.189 146.876C124.583 146.204 125.117 145.671 125.789 145.276C126.461 144.881 127.218 144.684 128.061 144.684C128.893 144.684 129.645 144.881 130.317 145.276C130.989 145.66 131.517 146.188 131.901 146.86C132.295 147.532 132.493 148.305 132.493 149.18C132.493 150.055 132.29 150.833 131.885 151.516C131.479 152.188 130.941 152.721 130.269 153.116C129.607 153.5 128.871 153.692 128.061 153.692ZM128.061 152.252C128.594 152.252 129.074 152.119 129.501 151.852C129.938 151.585 130.279 151.217 130.525 150.748C130.781 150.279 130.909 149.756 130.909 149.18C130.909 148.593 130.781 148.076 130.525 147.628C130.279 147.169 129.938 146.807 129.501 146.54C129.074 146.263 128.594 146.124 128.061 146.124C127.517 146.124 127.026 146.263 126.589 146.54C126.162 146.807 125.821 147.169 125.565 147.628C125.309 148.076 125.181 148.593 125.181 149.18C125.181 149.756 125.309 150.279 125.565 150.748C125.821 151.217 126.162 151.585 126.589 151.852C127.026 152.119 127.517 152.252 128.061 152.252ZM134.433 153.5V144.876H135.889V146.556L135.649 146.412C135.863 145.868 136.204 145.447 136.673 145.148C137.153 144.839 137.713 144.684 138.353 144.684C138.972 144.684 139.521 144.823 140.001 145.1C140.492 145.377 140.876 145.761 141.153 146.252C141.441 146.743 141.585 147.297 141.585 147.916V153.5H140.081V148.396C140.081 147.916 139.996 147.511 139.825 147.18C139.655 146.849 139.409 146.593 139.089 146.412C138.78 146.22 138.423 146.124 138.017 146.124C137.612 146.124 137.249 146.22 136.929 146.412C136.62 146.593 136.375 146.855 136.193 147.196C136.012 147.527 135.921 147.927 135.921 148.396V153.5H134.433ZM146.803 153.692C145.939 153.692 145.187 153.479 144.547 153.052C143.907 152.625 143.453 152.049 143.187 151.324L144.371 150.748C144.616 151.26 144.952 151.665 145.379 151.964C145.805 152.263 146.28 152.412 146.803 152.412C147.272 152.412 147.661 152.3 147.971 152.076C148.28 151.852 148.435 151.559 148.435 151.196C148.435 150.94 148.36 150.737 148.211 150.588C148.072 150.428 147.901 150.305 147.699 150.22C147.496 150.124 147.309 150.055 147.139 150.012L145.843 149.644C145.064 149.42 144.493 149.1 144.131 148.684C143.779 148.268 143.603 147.783 143.603 147.228C143.603 146.716 143.731 146.273 143.987 145.9C144.253 145.516 144.611 145.217 145.059 145.004C145.517 144.791 146.029 144.684 146.595 144.684C147.352 144.684 148.029 144.876 148.627 145.26C149.235 145.644 149.667 146.183 149.923 146.876L148.707 147.436C148.515 146.988 148.227 146.636 147.843 146.38C147.459 146.113 147.027 145.98 146.547 145.98C146.109 145.98 145.763 146.092 145.507 146.316C145.251 146.529 145.123 146.801 145.123 147.132C145.123 147.377 145.187 147.58 145.315 147.74C145.443 147.889 145.597 148.007 145.779 148.092C145.96 148.167 146.136 148.231 146.307 148.284L147.715 148.7C148.419 148.903 148.963 149.217 149.347 149.644C149.741 150.071 149.939 150.583 149.939 151.18C149.939 151.66 149.805 152.092 149.539 152.476C149.272 152.86 148.904 153.159 148.435 153.372C147.965 153.585 147.421 153.692 146.803 153.692Z" fill="#777E90"/>
<rect x="1" y="1" width="232" height="205" rx="8" stroke="#F0FCF9"/>
</g>
<defs>
<filter id="filter0_b_119_4733" x="-18.5" y="-18.5" width="271" height="244" filterUnits="userSpaceOnUse" color-interpolation-filters="sRGB">
<feFlood flood-opacity="0" result="BackgroundImageFix"/>
<feGaussianBlur in="BackgroundImage" stdDeviation="9.5"/>
<feComposite in2="SourceAlpha" operator="in" result="effect1_backgroundBlur_119_4733"/>
<feBlend mode="normal" in="SourceGraphic" in2="effect1_backgroundBlur_119_4733" result="shape"/>
</filter>
</defs>
</svg>
