<svg width="350" height="251" viewBox="0 0 350 251" fill="none" xmlns="http://www.w3.org/2000/svg">
<g filter="url(#filter0_b_119_4673)">
<path fill-rule="evenodd" clip-rule="evenodd" d="M1.18726 37.1075V30.0538C1.18726 28.1059 1.65031 26.4433 2.57642 25.066C3.50254 23.6887 4.62045 23 5.93017 23H310.07C311.38 23 312.497 23.6887 313.424 25.066C314.35 26.4433 314.813 28.1059 314.813 30.0538V220.946C314.813 222.894 314.35 224.557 313.424 225.934C312.497 227.311 311.38 228 310.07 228H5.93017C4.62045 228 3.50254 227.311 2.57642 225.934C1.65031 224.557 1.18726 222.894 1.18726 220.946V37.1075Z" fill="white"/>
<path fill-rule="evenodd" clip-rule="evenodd" d="M1.18726 37.1075V30.0538C1.18726 28.1059 1.65031 26.4433 2.57642 25.066C3.50254 23.6887 4.62045 23 5.93017 23H310.07C311.38 23 312.497 23.6887 313.424 25.066C314.35 26.4433 314.813 28.1059 314.813 30.0538V220.946C314.813 222.894 314.35 224.557 313.424 225.934C312.497 227.311 311.38 228 310.07 228H5.93017C4.62045 228 3.50254 227.311 2.57642 225.934C1.65031 224.557 1.18726 222.894 1.18726 220.946V37.1075Z" stroke="#F0FCF9"/>
</g>
<path d="M28.5373 113.821V103.261H26.2813V101.901H30.1213V113.821H28.5373ZM36.5987 114.013C35.98 114.013 35.3987 113.906 34.8547 113.693C34.3107 113.469 33.836 113.154 33.4307 112.749C33.036 112.333 32.748 111.847 32.5667 111.293L33.8467 110.749C34.0707 111.335 34.4334 111.794 34.9347 112.125C35.4467 112.445 36.0014 112.605 36.5987 112.605C37.0894 112.605 37.5214 112.498 37.8947 112.285C38.2787 112.061 38.5774 111.757 38.7907 111.373C39.004 110.978 39.1107 110.541 39.1107 110.061C39.1107 109.559 38.9987 109.117 38.7747 108.733C38.5614 108.349 38.268 108.05 37.8947 107.837C37.5214 107.613 37.0947 107.501 36.6147 107.501C36.124 107.501 35.676 107.613 35.2707 107.837C34.8654 108.061 34.572 108.343 34.3907 108.685L33.1267 108.413L34.0387 101.901H40.2147V103.261H34.6307L35.2387 102.653L34.5347 107.709L33.9907 107.389C34.3427 106.941 34.7534 106.621 35.2227 106.429C35.7027 106.226 36.22 106.125 36.7747 106.125C37.5534 106.125 38.236 106.301 38.8227 106.653C39.4094 107.005 39.868 107.474 40.1987 108.061C40.5294 108.647 40.6947 109.314 40.6947 110.061C40.6947 110.807 40.5134 111.479 40.1507 112.077C39.7987 112.674 39.3134 113.149 38.6947 113.501C38.0867 113.842 37.388 114.013 36.5987 114.013ZM47.4661 114.013C46.5167 114.013 45.6847 113.757 44.9701 113.245C44.2661 112.722 43.7167 112.002 43.3221 111.085C42.9274 110.157 42.7301 109.079 42.7301 107.853C42.7301 106.626 42.9274 105.554 43.3221 104.637C43.7167 103.709 44.2661 102.989 44.9701 102.477C45.6741 101.965 46.5007 101.709 47.4501 101.709C48.3994 101.709 49.2261 101.965 49.9301 102.477C50.6341 102.989 51.1834 103.709 51.5781 104.637C51.9834 105.554 52.1861 106.626 52.1861 107.853C52.1861 109.079 51.9887 110.157 51.5941 111.085C51.1994 112.013 50.6447 112.733 49.9301 113.245C49.2261 113.757 48.4047 114.013 47.4661 114.013ZM47.4661 112.557C48.1061 112.557 48.6607 112.365 49.1301 111.981C49.5994 111.586 49.9621 111.037 50.2181 110.333C50.4847 109.629 50.6181 108.802 50.6181 107.853C50.6181 106.903 50.4847 106.077 50.2181 105.373C49.9621 104.669 49.5941 104.125 49.1141 103.741C48.6447 103.357 48.0901 103.165 47.4501 103.165C46.8101 103.165 46.2554 103.357 45.7861 103.741C45.3167 104.125 44.9487 104.669 44.6821 105.373C44.4261 106.077 44.2981 106.903 44.2981 107.853C44.2981 108.791 44.4261 109.613 44.6821 110.317C44.9487 111.021 45.3167 111.57 45.7861 111.965C46.2661 112.359 46.8261 112.557 47.4661 112.557Z" fill="#809FB8"/>
<path d="M28.5373 155.821V145.261H26.2813V143.901H30.1213V155.821H28.5373ZM37.6067 156.013C36.6574 156.013 35.8254 155.757 35.1107 155.245C34.4067 154.722 33.8574 154.002 33.4627 153.085C33.068 152.157 32.8707 151.079 32.8707 149.853C32.8707 148.626 33.068 147.554 33.4627 146.637C33.8574 145.709 34.4067 144.989 35.1107 144.477C35.8147 143.965 36.6414 143.709 37.5907 143.709C38.54 143.709 39.3667 143.965 40.0707 144.477C40.7747 144.989 41.324 145.709 41.7187 146.637C42.124 147.554 42.3267 148.626 42.3267 149.853C42.3267 151.079 42.1294 152.157 41.7347 153.085C41.34 154.013 40.7854 154.733 40.0707 155.245C39.3667 155.757 38.5454 156.013 37.6067 156.013ZM37.6067 154.557C38.2467 154.557 38.8014 154.365 39.2707 153.981C39.74 153.586 40.1027 153.037 40.3587 152.333C40.6254 151.629 40.7587 150.802 40.7587 149.853C40.7587 148.903 40.6254 148.077 40.3587 147.373C40.1027 146.669 39.7347 146.125 39.2547 145.741C38.7854 145.357 38.2307 145.165 37.5907 145.165C36.9507 145.165 36.396 145.357 35.9267 145.741C35.4574 146.125 35.0894 146.669 34.8227 147.373C34.5667 148.077 34.4387 148.903 34.4387 149.853C34.4387 150.791 34.5667 151.613 34.8227 152.317C35.0894 153.021 35.4574 153.57 35.9267 153.965C36.4067 154.359 36.9667 154.557 37.6067 154.557ZM49.1848 156.013C48.2355 156.013 47.4035 155.757 46.6888 155.245C45.9848 154.722 45.4355 154.002 45.0408 153.085C44.6462 152.157 44.4488 151.079 44.4488 149.853C44.4488 148.626 44.6462 147.554 45.0408 146.637C45.4355 145.709 45.9848 144.989 46.6888 144.477C47.3928 143.965 48.2195 143.709 49.1688 143.709C50.1182 143.709 50.9448 143.965 51.6488 144.477C52.3528 144.989 52.9022 145.709 53.2968 146.637C53.7022 147.554 53.9048 148.626 53.9048 149.853C53.9048 151.079 53.7075 152.157 53.3128 153.085C52.9182 154.013 52.3635 154.733 51.6488 155.245C50.9448 155.757 50.1235 156.013 49.1848 156.013ZM49.1848 154.557C49.8248 154.557 50.3795 154.365 50.8488 153.981C51.3182 153.586 51.6808 153.037 51.9368 152.333C52.2035 151.629 52.3368 150.802 52.3368 149.853C52.3368 148.903 52.2035 148.077 51.9368 147.373C51.6808 146.669 51.3128 146.125 50.8328 145.741C50.3635 145.357 49.8088 145.165 49.1688 145.165C48.5288 145.165 47.9742 145.357 47.5048 145.741C47.0355 146.125 46.6675 146.669 46.4008 147.373C46.1448 148.077 46.0168 148.903 46.0168 149.853C46.0168 150.791 46.1448 151.613 46.4008 152.317C46.6675 153.021 47.0355 153.57 47.5048 153.965C47.9848 154.359 48.5448 154.557 49.1848 154.557Z" fill="#809FB8"/>
<path d="M30.4893 199.013C29.8707 199.013 29.2893 198.906 28.7453 198.693C28.2013 198.469 27.7267 198.154 27.3213 197.749C26.9267 197.333 26.6387 196.847 26.4573 196.293L27.7373 195.749C27.9613 196.335 28.324 196.794 28.8253 197.125C29.3373 197.445 29.892 197.605 30.4893 197.605C30.98 197.605 31.412 197.498 31.7853 197.285C32.1693 197.061 32.468 196.757 32.6813 196.373C32.8947 195.978 33.0013 195.541 33.0013 195.061C33.0013 194.559 32.8893 194.117 32.6653 193.733C32.452 193.349 32.1587 193.05 31.7853 192.837C31.412 192.613 30.9853 192.501 30.5053 192.501C30.0147 192.501 29.5667 192.613 29.1613 192.837C28.756 193.061 28.4627 193.343 28.2813 193.685L27.0173 193.413L27.9293 186.901H34.1053V188.261H28.5213L29.1293 187.653L28.4253 192.709L27.8813 192.389C28.2333 191.941 28.644 191.621 29.1133 191.429C29.5933 191.226 30.1107 191.125 30.6653 191.125C31.444 191.125 32.1267 191.301 32.7133 191.653C33.3 192.005 33.7587 192.474 34.0893 193.061C34.42 193.647 34.5853 194.314 34.5853 195.061C34.5853 195.807 34.404 196.479 34.0413 197.077C33.6893 197.674 33.204 198.149 32.5853 198.501C31.9773 198.842 31.2787 199.013 30.4893 199.013ZM41.3567 199.013C40.4074 199.013 39.5754 198.757 38.8607 198.245C38.1567 197.722 37.6074 197.002 37.2127 196.085C36.818 195.157 36.6207 194.079 36.6207 192.853C36.6207 191.626 36.818 190.554 37.2127 189.637C37.6074 188.709 38.1567 187.989 38.8607 187.477C39.5647 186.965 40.3914 186.709 41.3407 186.709C42.29 186.709 43.1167 186.965 43.8207 187.477C44.5247 187.989 45.074 188.709 45.4687 189.637C45.874 190.554 46.0767 191.626 46.0767 192.853C46.0767 194.079 45.8794 195.157 45.4847 196.085C45.09 197.013 44.5354 197.733 43.8207 198.245C43.1167 198.757 42.2954 199.013 41.3567 199.013ZM41.3567 197.557C41.9967 197.557 42.5514 197.365 43.0207 196.981C43.49 196.586 43.8527 196.037 44.1087 195.333C44.3754 194.629 44.5087 193.802 44.5087 192.853C44.5087 191.903 44.3754 191.077 44.1087 190.373C43.8527 189.669 43.4847 189.125 43.0047 188.741C42.5354 188.357 41.9807 188.165 41.3407 188.165C40.7007 188.165 40.146 188.357 39.6767 188.741C39.2074 189.125 38.8394 189.669 38.5727 190.373C38.3167 191.077 38.1887 191.903 38.1887 192.853C38.1887 193.791 38.3167 194.613 38.5727 195.317C38.8394 196.021 39.2074 196.57 39.6767 196.965C40.1567 197.359 40.7167 197.557 41.3567 197.557Z" fill="#809FB8"/>
<path fill-rule="evenodd" clip-rule="evenodd" d="M59.9922 199.423V198.582H289.261V199.423H59.9922ZM60.2255 156.952V156.111H289.494V156.952H60.2255ZM59.9922 114.482V113.642H289.261V114.482H59.9922Z" fill="#A2B5CD"/>
<g filter="url(#filter1_bd_119_4673)">
<rect x="179" y="44.2349" width="110" height="32" rx="8" fill="url(#paint0_linear_119_4673)"/>
<path fill-rule="evenodd" clip-rule="evenodd" d="M186.5 60.2349V57.2349C186.5 56.1303 186.891 55.1875 187.672 54.4064C188.453 53.6254 189.395 53.2349 190.5 53.2349H196.5C197.605 53.2349 198.547 53.6254 199.328 54.4064C200.109 55.1875 200.5 56.1303 200.5 57.2349V63.2349C200.5 64.3394 200.109 65.2822 199.328 66.0633C198.547 66.8443 197.605 67.2349 196.5 67.2349H190.5C189.395 67.2349 188.453 66.8443 187.672 66.0633C186.891 65.2822 186.5 64.3394 186.5 63.2349V60.2349Z" fill="#9173B8"/>
<path d="M213.246 66.4029C212.583 66.4029 211.977 66.2815 211.426 66.0389C210.875 65.7869 210.409 65.4462 210.026 65.0169C209.643 64.5875 209.368 64.1069 209.2 63.5749L210.39 63.0849C210.642 63.7569 211.015 64.2749 211.51 64.6389C212.014 64.9935 212.602 65.1709 213.274 65.1709C213.685 65.1709 214.044 65.1055 214.352 64.9749C214.66 64.8442 214.898 64.6622 215.066 64.4289C215.243 64.1862 215.332 63.9062 215.332 63.5889C215.332 63.1502 215.206 62.8049 214.954 62.5529C214.711 62.2915 214.352 62.0955 213.876 61.9649L211.958 61.3769C211.202 61.1435 210.623 60.7749 210.222 60.2709C209.821 59.7669 209.62 59.1882 209.62 58.5349C209.62 57.9655 209.755 57.4662 210.026 57.0369C210.306 56.5982 210.689 56.2575 211.174 56.0149C211.669 55.7629 212.229 55.6369 212.854 55.6369C213.479 55.6369 214.044 55.7489 214.548 55.9729C215.061 56.1969 215.495 56.5002 215.85 56.8829C216.205 57.2562 216.466 57.6855 216.634 58.1709L215.458 58.6609C215.234 58.0729 214.898 57.6295 214.45 57.3309C214.002 57.0229 213.475 56.8689 212.868 56.8689C212.495 56.8689 212.163 56.9342 211.874 57.0649C211.594 57.1862 211.375 57.3682 211.216 57.6109C211.067 57.8442 210.992 58.1242 210.992 58.4509C210.992 58.8335 211.113 59.1742 211.356 59.4729C211.599 59.7715 211.967 60.0002 212.462 60.1589L214.212 60.6769C215.033 60.9289 215.654 61.2882 216.074 61.7549C216.494 62.2215 216.704 62.8002 216.704 63.4909C216.704 64.0602 216.555 64.5642 216.256 65.0029C215.967 65.4415 215.561 65.7869 215.038 66.0389C214.525 66.2815 213.927 66.4029 213.246 66.4029ZM222.031 66.4029C221.303 66.4029 220.654 66.2302 220.085 65.8849C219.515 65.5395 219.067 65.0682 218.741 64.4709C218.414 63.8642 218.251 63.1875 218.251 62.4409C218.251 61.6849 218.409 61.0129 218.727 60.4249C219.053 59.8369 219.492 59.3749 220.043 59.0389C220.603 58.6935 221.228 58.5209 221.919 58.5209C222.479 58.5209 222.973 58.6235 223.403 58.8289C223.841 59.0249 224.21 59.2955 224.509 59.6409C224.817 59.9769 225.05 60.3642 225.209 60.8029C225.377 61.2322 225.461 61.6802 225.461 62.1469C225.461 62.2495 225.451 62.3662 225.433 62.4969C225.423 62.6182 225.409 62.7349 225.391 62.8469H219.203V61.7269H224.635L224.019 62.2309C224.103 61.7455 224.056 61.3115 223.879 60.9289C223.701 60.5462 223.44 60.2429 223.095 60.0189C222.749 59.7949 222.357 59.6829 221.919 59.6829C221.48 59.6829 221.079 59.7949 220.715 60.0189C220.351 60.2429 220.066 60.5649 219.861 60.9849C219.665 61.3955 219.585 61.8855 219.623 62.4549C219.585 63.0055 219.669 63.4909 219.875 63.9109C220.089 64.3215 220.388 64.6435 220.771 64.8769C221.163 65.1009 221.587 65.2129 222.045 65.2129C222.549 65.2129 222.973 65.0962 223.319 64.8629C223.664 64.6295 223.944 64.3309 224.159 63.9669L225.251 64.5269C225.101 64.8722 224.868 65.1895 224.551 65.4789C224.243 65.7589 223.874 65.9829 223.445 66.1509C223.025 66.3189 222.553 66.4029 222.031 66.4029ZM229.86 66.4029C229.104 66.4029 228.446 66.2162 227.886 65.8429C227.326 65.4695 226.93 64.9655 226.696 64.3309L227.732 63.8269C227.947 64.2749 228.241 64.6295 228.614 64.8909C228.988 65.1522 229.403 65.2829 229.86 65.2829C230.271 65.2829 230.612 65.1849 230.882 64.9889C231.153 64.7929 231.288 64.5362 231.288 64.2189C231.288 63.9949 231.223 63.8175 231.092 63.6869C230.971 63.5469 230.822 63.4395 230.644 63.3649C230.467 63.2809 230.304 63.2202 230.154 63.1829L229.02 62.8609C228.339 62.6649 227.84 62.3849 227.522 62.0209C227.214 61.6569 227.06 61.2322 227.06 60.7469C227.06 60.2989 227.172 59.9115 227.396 59.5849C227.63 59.2489 227.942 58.9875 228.334 58.8009C228.736 58.6142 229.184 58.5209 229.678 58.5209C230.341 58.5209 230.934 58.6889 231.456 59.0249C231.988 59.3609 232.366 59.8322 232.59 60.4389L231.526 60.9289C231.358 60.5369 231.106 60.2289 230.77 60.0049C230.434 59.7715 230.056 59.6549 229.636 59.6549C229.254 59.6549 228.95 59.7529 228.726 59.9489C228.502 60.1355 228.39 60.3735 228.39 60.6629C228.39 60.8775 228.446 61.0549 228.558 61.1949C228.67 61.3255 228.806 61.4282 228.964 61.5029C229.123 61.5682 229.277 61.6242 229.426 61.6709L230.658 62.0349C231.274 62.2122 231.75 62.4875 232.086 62.8609C232.432 63.2342 232.604 63.6822 232.604 64.2049C232.604 64.6249 232.488 65.0029 232.254 65.3389C232.021 65.6749 231.699 65.9362 231.288 66.1229C230.878 66.3095 230.402 66.4029 229.86 66.4029ZM237.011 66.4029C236.255 66.4029 235.597 66.2162 235.037 65.8429C234.477 65.4695 234.08 64.9655 233.847 64.3309L234.883 63.8269C235.097 64.2749 235.391 64.6295 235.765 64.8909C236.138 65.1522 236.553 65.2829 237.011 65.2829C237.421 65.2829 237.762 65.1849 238.033 64.9889C238.303 64.7929 238.439 64.5362 238.439 64.2189C238.439 63.9949 238.373 63.8175 238.243 63.6869C238.121 63.5469 237.972 63.4395 237.795 63.3649C237.617 63.2809 237.454 63.2202 237.305 63.1829L236.171 62.8609C235.489 62.6649 234.99 62.3849 234.673 62.0209C234.365 61.6569 234.211 61.2322 234.211 60.7469C234.211 60.2989 234.323 59.9115 234.547 59.5849C234.78 59.2489 235.093 58.9875 235.485 58.8009C235.886 58.6142 236.334 58.5209 236.829 58.5209C237.491 58.5209 238.084 58.6889 238.607 59.0249C239.139 59.3609 239.517 59.8322 239.741 60.4389L238.677 60.9289C238.509 60.5369 238.257 60.2289 237.921 60.0049C237.585 59.7715 237.207 59.6549 236.787 59.6549C236.404 59.6549 236.101 59.7529 235.877 59.9489C235.653 60.1355 235.541 60.3735 235.541 60.6629C235.541 60.8775 235.597 61.0549 235.709 61.1949C235.821 61.3255 235.956 61.4282 236.115 61.5029C236.273 61.5682 236.427 61.6242 236.577 61.6709L237.809 62.0349C238.425 62.2122 238.901 62.4875 239.237 62.8609C239.582 63.2342 239.755 63.6822 239.755 64.2049C239.755 64.6249 239.638 65.0029 239.405 65.3389C239.171 65.6749 238.849 65.9362 238.439 66.1229C238.028 66.3095 237.552 66.4029 237.011 66.4029ZM241.459 66.2349V58.6889H242.761V66.2349H241.459ZM241.459 57.4849V55.8049H242.761V57.4849H241.459ZM248.365 66.4029C247.637 66.4029 246.979 66.2349 246.391 65.8989C245.803 65.5535 245.337 65.0822 244.991 64.4849C244.646 63.8875 244.473 63.2109 244.473 62.4549C244.473 61.6989 244.641 61.0269 244.977 60.4389C245.323 59.8509 245.789 59.3842 246.377 59.0389C246.965 58.6935 247.628 58.5209 248.365 58.5209C249.093 58.5209 249.751 58.6935 250.339 59.0389C250.927 59.3749 251.389 59.8369 251.725 60.4249C252.071 61.0129 252.243 61.6895 252.243 62.4549C252.243 63.2202 252.066 63.9015 251.711 64.4989C251.357 65.0869 250.885 65.5535 250.297 65.8989C249.719 66.2349 249.075 66.4029 248.365 66.4029ZM248.365 65.1429C248.832 65.1429 249.252 65.0262 249.625 64.7929C250.008 64.5595 250.307 64.2375 250.521 63.8269C250.745 63.4162 250.857 62.9589 250.857 62.4549C250.857 61.9415 250.745 61.4889 250.521 61.0969C250.307 60.6955 250.008 60.3782 249.625 60.1449C249.252 59.9022 248.832 59.7809 248.365 59.7809C247.889 59.7809 247.46 59.9022 247.077 60.1449C246.704 60.3782 246.405 60.6955 246.181 61.0969C245.957 61.4889 245.845 61.9415 245.845 62.4549C245.845 62.9589 245.957 63.4162 246.181 63.8269C246.405 64.2375 246.704 64.5595 247.077 64.7929C247.46 65.0262 247.889 65.1429 248.365 65.1429ZM253.942 66.2349V58.6889H255.216V60.1589L255.006 60.0329C255.192 59.5569 255.491 59.1882 255.902 58.9269C256.322 58.6562 256.812 58.5209 257.372 58.5209C257.913 58.5209 258.394 58.6422 258.814 58.8849C259.243 59.1275 259.579 59.4635 259.822 59.8929C260.074 60.3222 260.2 60.8075 260.2 61.3489V66.2349H258.884V61.7689C258.884 61.3489 258.809 60.9942 258.66 60.7049C258.51 60.4155 258.296 60.1915 258.016 60.0329C257.745 59.8649 257.432 59.7809 257.078 59.7809C256.723 59.7809 256.406 59.8649 256.126 60.0329C255.855 60.1915 255.64 60.4202 255.482 60.7189C255.323 61.0082 255.244 61.3582 255.244 61.7689V66.2349H253.942ZM264.765 66.4029C264.009 66.4029 263.351 66.2162 262.791 65.8429C262.231 65.4695 261.834 64.9655 261.601 64.3309L262.637 63.8269C262.851 64.2749 263.145 64.6295 263.519 64.8909C263.892 65.1522 264.307 65.2829 264.765 65.2829C265.175 65.2829 265.516 65.1849 265.787 64.9889C266.057 64.7929 266.193 64.5362 266.193 64.2189C266.193 63.9949 266.127 63.8175 265.997 63.6869C265.875 63.5469 265.726 63.4395 265.549 63.3649C265.371 63.2809 265.208 63.2202 265.059 63.1829L263.925 62.8609C263.243 62.6649 262.744 62.3849 262.427 62.0209C262.119 61.6569 261.965 61.2322 261.965 60.7469C261.965 60.2989 262.077 59.9115 262.301 59.5849C262.534 59.2489 262.847 58.9875 263.239 58.8009C263.64 58.6142 264.088 58.5209 264.583 58.5209C265.245 58.5209 265.838 58.6889 266.361 59.0249C266.893 59.3609 267.271 59.8322 267.495 60.4389L266.431 60.9289C266.263 60.5369 266.011 60.2289 265.675 60.0049C265.339 59.7715 264.961 59.6549 264.541 59.6549C264.158 59.6549 263.855 59.7529 263.631 59.9489C263.407 60.1355 263.295 60.3735 263.295 60.6629C263.295 60.8775 263.351 61.0549 263.463 61.1949C263.575 61.3255 263.71 61.4282 263.869 61.5029C264.027 61.5682 264.181 61.6242 264.331 61.6709L265.563 62.0349C266.179 62.2122 266.655 62.4875 266.991 62.8609C267.336 63.2342 267.509 63.6822 267.509 64.2049C267.509 64.6249 267.392 65.0029 267.159 65.3389C266.925 65.6749 266.603 65.9362 266.193 66.1229C265.782 66.3095 265.306 66.4029 264.765 66.4029Z" fill="#697884"/>
<rect x="179" y="44.2349" width="110" height="32" rx="8" stroke="url(#paint1_linear_119_4673)" stroke-width="1.07993"/>
</g>
<path d="M36.1245 67.197C35.1912 67.197 34.3245 67.0237 33.5245 66.677C32.7245 66.317 32.0445 65.8304 31.4845 65.217C30.9245 64.6037 30.5112 63.897 30.2445 63.097L32.2445 62.257C32.6045 63.177 33.1312 63.8837 33.8245 64.377C34.5178 64.8704 35.3178 65.117 36.2245 65.117C36.7578 65.117 37.2245 65.037 37.6245 64.877C38.0245 64.7037 38.3312 64.4637 38.5445 64.157C38.7712 63.8504 38.8845 63.497 38.8845 63.097C38.8845 62.5504 38.7312 62.117 38.4245 61.797C38.1178 61.477 37.6645 61.2237 37.0645 61.037L34.2645 60.157C33.1445 59.8104 32.2912 59.2837 31.7045 58.577C31.1178 57.857 30.8245 57.017 30.8245 56.057C30.8245 55.217 31.0312 54.4837 31.4445 53.857C31.8578 53.217 32.4245 52.717 33.1445 52.357C33.8778 51.997 34.7112 51.817 35.6445 51.817C36.5378 51.817 37.3512 51.977 38.0845 52.297C38.8178 52.6037 39.4445 53.0304 39.9645 53.577C40.4978 54.1237 40.8845 54.757 41.1245 55.477L39.1645 56.337C38.8712 55.5504 38.4112 54.9437 37.7845 54.517C37.1712 54.0904 36.4578 53.877 35.6445 53.877C35.1512 53.877 34.7178 53.9637 34.3445 54.137C33.9712 54.297 33.6778 54.537 33.4645 54.857C33.2645 55.1637 33.1645 55.5237 33.1645 55.937C33.1645 56.417 33.3178 56.8437 33.6245 57.217C33.9312 57.5904 34.3978 57.8704 35.0245 58.057L37.6245 58.877C38.8112 59.237 39.7045 59.757 40.3045 60.437C40.9045 61.1037 41.2045 61.937 41.2045 62.937C41.2045 63.7637 40.9845 64.497 40.5445 65.137C40.1178 65.777 39.5245 66.2837 38.7645 66.657C38.0045 67.017 37.1245 67.197 36.1245 67.197ZM48.7137 67.197C47.6337 67.197 46.6737 66.9504 45.8337 66.457C45.0071 65.9504 44.3604 65.2704 43.8937 64.417C43.4271 63.5504 43.1937 62.5837 43.1937 61.517C43.1937 60.4237 43.4271 59.457 43.8937 58.617C44.3737 57.777 45.0137 57.117 45.8137 56.637C46.6137 56.1437 47.5204 55.897 48.5337 55.897C49.3471 55.897 50.0737 56.037 50.7137 56.317C51.3537 56.597 51.8937 56.9837 52.3337 57.477C52.7737 57.957 53.1071 58.5104 53.3337 59.137C53.5737 59.7637 53.6937 60.4304 53.6937 61.137C53.6937 61.3104 53.6871 61.4904 53.6737 61.677C53.6604 61.8637 53.6337 62.037 53.5937 62.197H44.9737V60.397H52.3137L51.2337 61.217C51.3671 60.5637 51.3204 59.9837 51.0937 59.477C50.8804 58.957 50.5471 58.5504 50.0937 58.257C49.6537 57.9504 49.1337 57.797 48.5337 57.797C47.9337 57.797 47.4004 57.9504 46.9337 58.257C46.4671 58.5504 46.1071 58.977 45.8537 59.537C45.6004 60.0837 45.5004 60.7504 45.5537 61.537C45.4871 62.2704 45.5871 62.9104 45.8537 63.457C46.1337 64.0037 46.5204 64.4304 47.0137 64.737C47.5204 65.0437 48.0937 65.197 48.7337 65.197C49.3871 65.197 49.9404 65.0504 50.3937 64.757C50.8604 64.4637 51.2271 64.0837 51.4937 63.617L53.3337 64.517C53.1204 65.0237 52.7871 65.4837 52.3337 65.897C51.8937 66.297 51.3604 66.617 50.7337 66.857C50.1204 67.0837 49.4471 67.197 48.7137 67.197ZM59.8993 67.197C58.7927 67.197 57.8193 66.9237 56.9793 66.377C56.1527 65.8304 55.5727 65.097 55.2393 64.177L56.9793 63.357C57.2727 63.9704 57.6727 64.457 58.1793 64.817C58.6993 65.177 59.2727 65.357 59.8993 65.357C60.4327 65.357 60.866 65.237 61.1993 64.997C61.5327 64.757 61.6993 64.4304 61.6993 64.017C61.6993 63.7504 61.626 63.537 61.4793 63.377C61.3327 63.2037 61.146 63.0637 60.9193 62.957C60.706 62.8504 60.486 62.7704 60.2593 62.717L58.5593 62.237C57.626 61.9704 56.926 61.5704 56.4593 61.037C56.006 60.4904 55.7793 59.857 55.7793 59.137C55.7793 58.4837 55.946 57.917 56.2793 57.437C56.6127 56.9437 57.0727 56.5637 57.6593 56.297C58.246 56.0304 58.906 55.897 59.6393 55.897C60.626 55.897 61.506 56.1437 62.2793 56.637C63.0527 57.117 63.5993 57.7904 63.9193 58.657L62.1793 59.477C61.966 58.957 61.626 58.5437 61.1593 58.237C60.706 57.9304 60.1927 57.777 59.6193 57.777C59.126 57.777 58.7327 57.897 58.4393 58.137C58.146 58.3637 57.9993 58.6637 57.9993 59.037C57.9993 59.2904 58.066 59.5037 58.1993 59.677C58.3327 59.837 58.506 59.9704 58.7193 60.077C58.9327 60.1704 59.1527 60.2504 59.3793 60.317L61.1393 60.837C62.0327 61.0904 62.7193 61.4904 63.1993 62.037C63.6793 62.5704 63.9193 63.2104 63.9193 63.957C63.9193 64.597 63.746 65.1637 63.3993 65.657C63.066 66.137 62.5993 66.517 61.9993 66.797C61.3993 67.0637 60.6993 67.197 59.8993 67.197ZM70.1337 67.197C69.0271 67.197 68.0537 66.9237 67.2137 66.377C66.3871 65.8304 65.8071 65.097 65.4737 64.177L67.2137 63.357C67.5071 63.9704 67.9071 64.457 68.4137 64.817C68.9337 65.177 69.5071 65.357 70.1337 65.357C70.6671 65.357 71.1004 65.237 71.4337 64.997C71.7671 64.757 71.9337 64.4304 71.9337 64.017C71.9337 63.7504 71.8604 63.537 71.7137 63.377C71.5671 63.2037 71.3804 63.0637 71.1537 62.957C70.9404 62.8504 70.7204 62.7704 70.4937 62.717L68.7937 62.237C67.8604 61.9704 67.1604 61.5704 66.6937 61.037C66.2404 60.4904 66.0137 59.857 66.0137 59.137C66.0137 58.4837 66.1804 57.917 66.5137 57.437C66.8471 56.9437 67.3071 56.5637 67.8937 56.297C68.4804 56.0304 69.1404 55.897 69.8737 55.897C70.8604 55.897 71.7404 56.1437 72.5137 56.637C73.2871 57.117 73.8337 57.7904 74.1537 58.657L72.4137 59.477C72.2004 58.957 71.8604 58.5437 71.3937 58.237C70.9404 57.9304 70.4271 57.777 69.8537 57.777C69.3604 57.777 68.9671 57.897 68.6737 58.137C68.3804 58.3637 68.2337 58.6637 68.2337 59.037C68.2337 59.2904 68.3004 59.5037 68.4337 59.677C68.5671 59.837 68.7404 59.9704 68.9537 60.077C69.1671 60.1704 69.3871 60.2504 69.6137 60.317L71.3737 60.837C72.2671 61.0904 72.9537 61.4904 73.4337 62.037C73.9137 62.5704 74.1537 63.2104 74.1537 63.957C74.1537 64.597 73.9804 65.1637 73.6337 65.657C73.3004 66.137 72.8337 66.517 72.2337 66.797C71.6337 67.0637 70.9337 67.197 70.1337 67.197ZM76.3681 66.957V56.137H78.6281V66.957H76.3681ZM76.3681 54.657V52.057H78.6281V54.657H76.3681ZM86.4904 67.197C85.4504 67.197 84.4971 66.9504 83.6304 66.457C82.7771 65.9637 82.0971 65.2904 81.5904 64.437C81.0838 63.5837 80.8304 62.617 80.8304 61.537C80.8304 60.4437 81.0838 59.477 81.5904 58.637C82.0971 57.7837 82.7771 57.117 83.6304 56.637C84.4838 56.1437 85.4371 55.897 86.4904 55.897C87.5571 55.897 88.5104 56.1437 89.3504 56.637C90.2038 57.117 90.8771 57.7837 91.3704 58.637C91.8771 59.477 92.1304 60.4437 92.1304 61.537C92.1304 62.6304 91.8771 63.6037 91.3704 64.457C90.8638 65.3104 90.1838 65.9837 89.3304 66.477C88.4771 66.957 87.5304 67.197 86.4904 67.197ZM86.4904 65.097C87.1304 65.097 87.6971 64.9437 88.1904 64.637C88.6838 64.3304 89.0704 63.9104 89.3504 63.377C89.6438 62.8304 89.7904 62.217 89.7904 61.537C89.7904 60.857 89.6438 60.2504 89.3504 59.717C89.0704 59.1837 88.6838 58.7637 88.1904 58.457C87.6971 58.1504 87.1304 57.997 86.4904 57.997C85.8638 57.997 85.2971 58.1504 84.7904 58.457C84.2971 58.7637 83.9038 59.1837 83.6104 59.717C83.3304 60.2504 83.1904 60.857 83.1904 61.537C83.1904 62.217 83.3304 62.8304 83.6104 63.377C83.9038 63.9104 84.2971 64.3304 84.7904 64.637C85.2971 64.9437 85.8638 65.097 86.4904 65.097ZM94.3368 66.957V56.137H96.4968V58.257L96.2368 57.977C96.5035 57.297 96.9302 56.7837 97.5168 56.437C98.1035 56.077 98.7835 55.897 99.5568 55.897C100.357 55.897 101.064 56.0704 101.677 56.417C102.29 56.7637 102.77 57.2437 103.117 57.857C103.464 58.4704 103.637 59.177 103.637 59.977V66.957H101.397V60.577C101.397 60.0304 101.297 59.5704 101.097 59.197C100.897 58.8104 100.61 58.517 100.237 58.317C99.8768 58.1037 99.4635 57.997 98.9968 57.997C98.5302 57.997 98.1102 58.1037 97.7368 58.317C97.3768 58.517 97.0968 58.8104 96.8968 59.197C96.6968 59.5837 96.5968 60.0437 96.5968 60.577V66.957H94.3368ZM110.056 67.197C108.949 67.197 107.976 66.9237 107.136 66.377C106.309 65.8304 105.729 65.097 105.396 64.177L107.136 63.357C107.429 63.9704 107.829 64.457 108.336 64.817C108.856 65.177 109.429 65.357 110.056 65.357C110.589 65.357 111.022 65.237 111.356 64.997C111.689 64.757 111.856 64.4304 111.856 64.017C111.856 63.7504 111.782 63.537 111.636 63.377C111.489 63.2037 111.302 63.0637 111.076 62.957C110.862 62.8504 110.642 62.7704 110.416 62.717L108.716 62.237C107.782 61.9704 107.082 61.5704 106.616 61.037C106.162 60.4904 105.936 59.857 105.936 59.137C105.936 58.4837 106.102 57.917 106.436 57.437C106.769 56.9437 107.229 56.5637 107.816 56.297C108.402 56.0304 109.062 55.897 109.796 55.897C110.782 55.897 111.662 56.1437 112.436 56.637C113.209 57.117 113.756 57.7904 114.076 58.657L112.336 59.477C112.122 58.957 111.782 58.5437 111.316 58.237C110.862 57.9304 110.349 57.777 109.776 57.777C109.282 57.777 108.889 57.897 108.596 58.137C108.302 58.3637 108.156 58.6637 108.156 59.037C108.156 59.2904 108.222 59.5037 108.356 59.677C108.489 59.837 108.662 59.9704 108.876 60.077C109.089 60.1704 109.309 60.2504 109.536 60.317L111.296 60.837C112.189 61.0904 112.876 61.4904 113.356 62.037C113.836 62.5704 114.076 63.2104 114.076 63.957C114.076 64.597 113.902 65.1637 113.556 65.657C113.222 66.137 112.756 66.517 112.156 66.797C111.556 67.0637 110.856 67.197 110.056 67.197Z" fill="#050505"/>
<path d="M59.9922 171.703L117.368 146.045L174.743 161.183L232.119 160.157L289.494 141.426V199.414H232.119H174.743H117.368H59.9922V171.703Z" fill="#4F1D8C" fill-opacity="0.6"/>
<defs>
<filter id="filter0_b_119_4673" x="-18.3127" y="3.5" width="352.625" height="244" filterUnits="userSpaceOnUse" color-interpolation-filters="sRGB">
<feFlood flood-opacity="0" result="BackgroundImageFix"/>
<feGaussianBlur in="BackgroundImage" stdDeviation="9.5"/>
<feComposite in2="SourceAlpha" operator="in" result="effect1_backgroundBlur_119_4673"/>
<feBlend mode="normal" in="SourceGraphic" in2="effect1_backgroundBlur_119_4673" result="shape"/>
</filter>
<filter id="filter1_bd_119_4673" x="28.4601" y="-47.7085" width="391.08" height="313.08" filterUnits="userSpaceOnUse" color-interpolation-filters="sRGB">
<feFlood flood-opacity="0" result="BackgroundImageFix"/>
<feGaussianBlur in="BackgroundImage" stdDeviation="9.5"/>
<feComposite in2="SourceAlpha" operator="in" result="effect1_backgroundBlur_119_4673"/>
<feColorMatrix in="SourceAlpha" type="matrix" values="0 0 0 0 0 0 0 0 0 0 0 0 0 0 0 0 0 0 127 0" result="hardAlpha"/>
<feOffset dx="-10" dy="48.5967"/>
<feGaussianBlur stdDeviation="70"/>
<feColorMatrix type="matrix" values="0 0 0 0 0.492847 0 0 0 0 0.482361 0 0 0 0 0.629167 0 0 0 0.2 0"/>
<feBlend mode="normal" in2="effect1_backgroundBlur_119_4673" result="effect2_dropShadow_119_4673"/>
<feBlend mode="normal" in="SourceGraphic" in2="effect2_dropShadow_119_4673" result="shape"/>
</filter>
<linearGradient id="paint0_linear_119_4673" x1="189.696" y1="46.1525" x2="188.241" y2="72.9466" gradientUnits="userSpaceOnUse">
<stop stop-color="white" stop-opacity="0.56"/>
<stop offset="0.496505" stop-color="#F8F8FF" stop-opacity="0.71"/>
<stop offset="1" stop-color="white" stop-opacity="0.59"/>
</linearGradient>
<linearGradient id="paint1_linear_119_4673" x1="202.121" y1="75.086" x2="232.32" y2="21.3905" gradientUnits="userSpaceOnUse">
<stop stop-color="#EDEDED" stop-opacity="0.49"/>
<stop offset="1" stop-color="white" stop-opacity="0"/>
</linearGradient>
</defs>
</svg>
