<svg width="64" height="64" viewBox="0 0 64 64" fill="none" xmlns="http://www.w3.org/2000/svg">
<g opacity="0.06">
<rect width="64" height="64" rx="16" fill="#2DA791"/>
</g>
<path opacity="0.3" fill-rule="evenodd" clip-rule="evenodd" d="M31.2456 43.7549L32.3796 44.8889C32.841 45.3503 32.841 46.0986 32.3796 46.56C31.9181 47.0215 31.1699 47.0215 30.7084 46.56L27.5571 43.4088C27.0957 42.9473 27.0957 42.1991 27.5571 41.7376L30.7084 38.5864C31.1699 38.1249 31.9181 38.1249 32.3796 38.5864C32.841 39.0479 32.841 39.7961 32.3796 40.2576L31.2456 41.3915H39.0281V43.7549H31.2456ZM43.7549 31.8423L44.8889 30.7084C45.3503 30.2469 46.0986 30.2469 46.56 30.7084C47.0215 31.1699 47.0215 31.9181 46.56 32.3796L43.4088 35.5308C43.1781 35.7615 42.8757 35.8769 42.5732 35.8769C42.2708 35.8769 41.9684 35.7615 41.7376 35.5308L38.5864 32.3796C38.1249 31.9181 38.1249 31.1699 38.5864 30.7084C39.0479 30.2469 39.7961 30.2469 40.2576 30.7084L41.3915 31.8423V24.0598H43.7549V31.8423ZM31.8423 21.6964H24.0598V19.333H31.8423L30.7084 18.1991C30.2469 17.7376 30.2469 16.9894 30.7084 16.5279C31.1699 16.0664 31.9181 16.0664 32.3796 16.5279L35.5308 19.6791C35.9923 20.1406 35.9923 20.8888 35.5308 21.3503L32.3796 24.5015C31.9181 24.963 31.1699 24.963 30.7084 24.5015C30.2469 24.04 30.2469 23.2918 30.7084 22.8303L31.8423 21.6964ZM19.333 31.2456L18.1991 32.3796C17.7376 32.841 16.9894 32.841 16.5279 32.3796C16.0664 31.9181 16.0664 31.1699 16.5279 30.7084L19.6791 27.5571C20.1406 27.0957 20.8888 27.0957 21.3503 27.5571L24.5015 30.7084C24.963 31.1699 24.963 31.9181 24.5015 32.3796C24.04 32.841 23.2918 32.841 22.8303 32.3796L21.6964 31.2456V39.0281H19.333V31.2456Z" fill="#2DA791"/>
<path fill-rule="evenodd" clip-rule="evenodd" d="M26.0293 23.6659V17.3634C26.0293 16.0581 24.9711 15 23.6659 15H17.3634C16.0581 15 15 16.0581 15 17.3634V23.6659C15 24.9711 16.0581 26.0293 17.3634 26.0293H23.6659C24.9711 26.0293 26.0293 24.9711 26.0293 23.6659ZM23.6659 37.0585H17.3634C16.0581 37.0585 15 38.1167 15 39.422V45.7244C15 47.0297 16.0581 48.0878 17.3634 48.0878H23.6659C24.9711 48.0878 26.0293 47.0297 26.0293 45.7244V39.422C26.0293 38.1167 24.9711 37.0585 23.6659 37.0585ZM45.7244 26.0293H39.422C38.1167 26.0293 37.0585 24.9711 37.0585 23.6659V17.3634C37.0585 16.0581 38.1167 15 39.422 15H45.7244C47.0297 15 48.0878 16.0581 48.0878 17.3634V23.6659C48.0878 24.9711 47.0297 26.0293 45.7244 26.0293ZM37.0585 39.422V45.7244C37.0585 47.0297 38.1167 48.0878 39.422 48.0878H45.7244C47.0297 48.0878 48.0878 47.0297 48.0878 45.7244V39.422C48.0878 38.1167 47.0297 37.0585 45.7244 37.0585H39.422C38.1167 37.0585 37.0585 38.1167 37.0585 39.422Z" fill="#2DA791"/>
</svg>
